<svg xmlns="http://www.w3.org/2000/svg" width="256" height="256"><path fill-opacity=".008" d="M0 128.004v128.004l128.25-.254 128.25-.254.254-127.75L257.008 0H0v128.004m.485.496c0 70.4.119 99.053.265 63.672.146-35.38.146-92.98 0-128C.604 29.153.485 58.1.485 128.5" fill="#1976D2" fill-rule="evenodd"/><path fill-opacity=".257" d="M11.5 1.89c-4.841 2.234-7.888 5.4-9.952 10.342C.181 15.501.003 29.102.022 128.218.043 235.243.13 240.687 1.89 244.5c2.234 4.841 5.4 7.888 10.342 9.952C15.5 255.818 29.114 256 128 256s112.5-.182 115.768-1.548c5.078-2.121 8.013-5.071 10.836-10.889l2.396-4.937V126.254c0-65.714-.371-112.143-.893-111.82-.492.304-1.167-.535-1.5-1.864-.932-3.713-5.586-8.655-10.066-10.69C240.697.134 235.01.044 128 .044 20.737.044 15.314.13 11.5 1.89M.483 128c0 62.425.12 87.963.267 56.75.147-31.212.147-82.287 0-113.5C.603 40.038.483 65.575.483 128" fill="#1976D2" fill-rule="evenodd"/><path fill-opacity=".409" d="M13.5 1.503C8.44 3.293 2.486 9.586 1.088 14.623c-1.535 5.528-1.504 221.339.033 226.874 1.448 5.217 8.165 11.934 13.382 13.382 5.486 1.523 221.342 1.569 226.818.049 4.753-1.32 11.055-6.896 12.646-11.189.66-1.781 1.612-4.02 2.116-4.975 1.193-2.261 1.231-223.076.039-222.339-.483.298-1.159-.86-1.502-2.574-.855-4.277-8.145-11.348-13.123-12.73C238.677.338 205.115.022 127.5.049 35.283.082 16.853.317 13.5 1.503M.483 128c0 61.325.12 86.413.267 55.75.147-30.662.147-80.837 0-111.5C.603 41.588.483 66.675.483 128M119.748 23.365C111.434 26.468 104.964 33.7 103.074 42c-.628 2.754-1.035 24.759-1.05 56.729l-.024 52.23-4.475 4.124c-5.967 5.501-9.968 11.732-12.588 19.607-1.785 5.362-2.094 8.203-1.77 16.265.356 8.851.743 10.477 4.115 17.302 9.683 19.59 31.349 29.637 52.203 24.205 12.643-3.293 23.971-12.87 29.814-25.203 3.051-6.441 3.201-7.325 3.201-18.811 0-11.892-.049-12.151-3.718-19.575-2.487-5.032-5.536-9.242-9.21-12.716l-5.492-5.194-.29-54.732c-.32-60.402-.062-57.915-6.82-65.613-1.804-2.055-5.11-4.669-7.346-5.81-5.143-2.624-14.828-3.327-19.876-1.443m3.043 6.572c-4.485 1.437-8.72 5.004-10.814 9.107C110.078 42.768 110 45.106 110 98.47v55.55l-2.248 1.74c-5.739 4.441-11.715 11.45-14.356 16.836-2.607 5.316-2.896 6.899-2.896 15.904 0 8.708.337 10.711 2.61 15.5 5.818 12.259 18.368 21.3 31.405 22.625 15.629 1.588 31.39-7.661 38.35-22.505 2.296-4.898 2.635-6.905 2.635-15.62 0-8.727-.337-10.719-2.648-15.647-2.402-5.124-8.772-12.58-14.604-17.093L146 154.02V98.47c0-53.757-.065-55.677-2.02-59.509-3.622-7.1-13.742-11.41-21.189-9.024" fill="#1976D2" fill-rule="evenodd"/><path fill-opacity=".451" d="M115.035 47.934c-.677 1.265-1.035 20.618-1.035 55.919v53.984l-3.403 2.103c-4.418 2.73-9.915 8.856-12.804 14.265-1.952 3.656-2.293 5.783-2.292 14.295 0 8.896.294 10.556 2.66 15.04 3.24 6.139 10.368 12.893 16.663 15.789 6.609 3.041 19.743 3.041 26.352 0 6.89-3.17 13.69-9.911 16.974-16.829 2.352-4.954 2.846-7.308 2.834-13.5-.016-8.85-1.48-12.5-5.014-12.5-2.463 0-2.47.027-2.47 10.075 0 9.464-.183 10.371-3.021 14.965-10.853 17.568-34.097 17.57-44.958.004-2.715-4.392-3.021-5.713-3.021-13.044 0-7.319.308-8.656 3.001-13.011 1.847-2.987 5.5-6.637 9.5-9.489l6.499-4.636.259-54.182.258-54.182h11.966l.258 54.203.259 54.202 4.292 3.016c3.39 2.383 4.65 2.791 6 1.946 2.764-1.733 2.655-5.028-.231-6.919L142 157.77v-53.951c0-35.277-.358-54.62-1.035-55.885C140.03 46.188 138.771 46 128 46s-12.03.188-12.965 1.934M149.2 167.2c-3.019 3.019.047 7.808 3.736 5.834 2.6-1.391 2.67-4.639.13-5.999-2.411-1.29-2.411-1.29-3.866.165" fill="#1976D2" fill-rule="evenodd"/></svg>